<?xml version="1.0" encoding="utf-8"?>
<!-- Generator: Adobe Illustrator 25.4.1, SVG Export Plug-In . SVG Version: 6.00 Build 0)  -->
<svg version="1.1" id="Capa_1" xmlns="http://www.w3.org/2000/svg" xmlns:xlink="http://www.w3.org/1999/xlink" x="0px" y="0px"
	 viewBox="0 0 13.7 13.5" style="enable-background:new 0 0 13.7 13.5;" xml:space="preserve">
<style type="text/css">
	.st0{fill:#9AA0A6;}
</style>
<path class="st0" d="M13.4,12.2L9.3,8.1c0.6-0.8,1-1.9,1-3C10.2,2.3,7.9,0,5.1,0S0,2.3,0,5.1s2.3,5.1,5.1,5.1c1.2,0,2.2-0.4,3.1-1.1
	l4.2,4.1c0.1,0.1,0.3,0.2,0.5,0.2c0.2,0,0.4-0.1,0.5-0.2C13.7,13,13.7,12.5,13.4,12.2z M1.5,5.1c0-2,1.6-3.6,3.6-3.6
	s3.6,1.6,3.6,3.6S7.1,8.7,5.1,8.7S1.5,7.1,1.5,5.1z"/>
</svg>
